<svg xmlns="http://www.w3.org/2000/svg" width="183.489" height="105.279" viewBox="0 0 183.489 105.279">
  <defs>
    <style>
      .cls-1 {
        fill: #fff;
      }
    </style>
  </defs>
  <g id="ddmotion2" transform="translate(-303.825 -266.741)">
    <g id="dolan" transform="translate(305.047 266.741)">
      <path id="Path_1" data-name="Path 1" class="cls-1" d="M630.034,312.518h22.043V306.66H630.034V268.614h-6.16v43.9h6.16Z" transform="translate(-547.659 -268.16)"/>
      <path id="Path_2" data-name="Path 2" class="cls-1" d="M315.037,312.519h7.731a20.375,20.375,0,0,0,9.043-1.842,12.823,12.823,0,0,0,5.723-5.375,17.3,17.3,0,0,0,1.963-8.516v-12.44a17.3,17.3,0,0,0-1.963-8.515,12.843,12.843,0,0,0-5.707-5.375,20.289,20.289,0,0,0-9.029-1.842h-13.92v43.9h6.16Zm7.941-38.047q4.862,0,7.534,2.521a9.305,9.305,0,0,1,2.672,7.111v12.924a9.3,9.3,0,0,1-2.672,7.111q-2.673,2.521-7.534,2.521h-7.941V274.472Z" transform="translate(-308.877 -268.161)"/>
      <path id="Path_3" data-name="Path 3" class="cls-1" d="M470.094,309.544a17.309,17.309,0,0,0,16.185,0,13.717,13.717,0,0,0,5.42-5.677,18.089,18.089,0,0,0,1.917-8.5v-12.44a18.091,18.091,0,0,0-1.917-8.5,13.72,13.72,0,0,0-5.42-5.677,17.309,17.309,0,0,0-16.185,0,13.718,13.718,0,0,0-5.421,5.677,18.09,18.09,0,0,0-1.917,8.5v12.44a18.089,18.089,0,0,0,1.917,8.5A13.715,13.715,0,0,0,470.094,309.544Zm-1.027-26.829a11.436,11.436,0,0,1,1.133-5.208,8.226,8.226,0,0,1,3.2-3.473,9.974,9.974,0,0,1,9.572,0,8.229,8.229,0,0,1,3.2,3.473,11.439,11.439,0,0,1,1.132,5.208v12.864a11.435,11.435,0,0,1-1.132,5.208,8.229,8.229,0,0,1-3.2,3.473,9.974,9.974,0,0,1-9.572,0,8.226,8.226,0,0,1-3.2-3.473,11.433,11.433,0,0,1-1.133-5.208Z" transform="translate(-425.524 -266.741)"/>
      <path id="Path_4" data-name="Path 4" class="cls-1" d="M954.474,268.614v32.795l-20.744-32.795h-5.586v43.875h6.1v-32.3l20.684,32.3h5.646V268.614Z" transform="translate(-778.306 -268.16)"/>
    </g>
    <g id="Layer_6" data-name="Layer 6" transform="translate(303.825 327.662)">
      <path id="Path_5" data-name="Path 5" class="cls-1" d="M333.279,552.256a29.752,29.752,0,0,0,2.213-12.075h-5.763a26.746,26.746,0,0,1-1.382,9.135c-.152.416-.32.811-.495,1.195l-8.878-9.438a20.406,20.406,0,0,1-2.644-3.446,16.188,16.188,0,0,1-1.664-3.654,12.133,12.133,0,0,1-.564-3.565A6.259,6.259,0,0,1,315.544,526a5.282,5.282,0,0,1,4.085-1.559,5.432,5.432,0,0,1,4.04,1.44,5.559,5.559,0,0,1,1.426,4.085v.594h6.06v-.594q0-5.465-3.016-8.452t-8.511-2.986q-5.525,0-8.555,3.1t-3.03,8.779a17.3,17.3,0,0,0,.773,5.124,20.337,20.337,0,0,0,1.5,3.6,10.556,10.556,0,0,0-3.584,2.538,12.048,12.048,0,0,0-2.911,8.466,13.918,13.918,0,0,0,1.5,6.7,9.966,9.966,0,0,0,4.367,4.233,15.1,15.1,0,0,0,6.907,1.456,19.042,19.042,0,0,0,10.219-2.629c.444-.274.864-.575,1.274-.889l2.944,3.072h7.694l-6.825-7.255A19.276,19.276,0,0,0,333.279,552.256Zm-8.971,2.837a10.329,10.329,0,0,1-6.372,1.99,9.122,9.122,0,0,1-6.075-1.827,6.353,6.353,0,0,1-2.154-5.125,6.679,6.679,0,0,1,2.02-5.2,6.325,6.325,0,0,1,1.83-1.151q.491.567,1.023,1.121l9.75,10.172Z" transform="translate(-303.825 -518.524)"/>
    </g>
    <g id="DUFF" transform="translate(344.122 327.662)">
      <path id="Path_6" data-name="Path 6" class="cls-1" d="M493.319,520.366a20.289,20.289,0,0,0-9.029-1.842H470.37v43.9h13.89a20.381,20.381,0,0,0,9.043-1.842,12.824,12.824,0,0,0,5.722-5.375,17.3,17.3,0,0,0,1.963-8.516V534.256a17.3,17.3,0,0,0-1.963-8.515A12.843,12.843,0,0,0,493.319,520.366Zm1.359,26.572a9.3,9.3,0,0,1-2.672,7.111q-2.673,2.521-7.534,2.521H476.53V524.382h7.942q4.862,0,7.534,2.521a9.306,9.306,0,0,1,2.672,7.111Z" transform="translate(-470.37 -518.524)"/>
      <path id="Path_7" data-name="Path 7" class="cls-1" d="M794.024,518.524h-6.16v43.9h6.16v-18.48h18.148v-5.858H794.024v-13.4H819.4v-6.169H794.024Z" transform="translate(-711.044 -518.524)"/>
      <path id="Path_8" data-name="Path 8" class="cls-1" d="M934.3,518.524h-6.16v43.9h6.16v-18.48h18.148v-5.858H934.3v-13.4h26.271v-6.169H934.3Z" transform="translate(-817.381 -518.524)"/>
      <rect id="Rectangle_2" data-name="Rectangle 2" class="cls-1" width="5.646" height="5.646" transform="translate(137.546 38.258)"/>
    </g>
    <g id="final_a" data-name="final a" transform="translate(413.407 268.447)">
      <path id="Path_9" data-name="Path 9" class="cls-1" d="M788.614,308.49l-9.179-24.9,10.643,3.359.756-2.4-12.5-3.944,0-.008,13.412-4.425-.787-2.385-13.451,4.438a3.184,3.184,0,0,0-.221-.467l-.055-.148h-.026a3.075,3.075,0,0,0-5.166,0h-.025l-.053.145a3.12,3.12,0,0,0-.3.745l-14.185-4.477-.755,2.4,13.423,4.236L758.4,284.534l.787,2.385,10.7-3.531-9.253,25.1h0l-2.932,7.953h6.48l1.641-4.776h17.606l1.641,4.776h6.481l-2.932-7.953Zm-20.788-2.667,2.91-8.471a2.487,2.487,0,0,0,1.087.256,2.512,2.512,0,0,0,.532-4.967l2.269-6.6,2.3,6.683a2.5,2.5,0,1,0,1.626,4.734l2.875,8.368Z" transform="translate(-756.722 -273.791)"/>
    </g>
    <g id="u" transform="translate(381.656 306.323)">
      <path id="Path_11" data-name="Path 11" class="cls-1" d="M672.1,430.331v7.562a2.876,2.876,0,0,1-2.872,2.873h-5.506v.015h-4.44a9.052,9.052,0,0,0-9.041,9.042v1.847H650.2V479.9q0,4.8-2.431,7.428a10.236,10.236,0,0,1-13.694,0q-2.416-2.628-2.415-7.428V451.67H625.5v28.022a19.774,19.774,0,0,0,1.812,8.833,12.588,12.588,0,0,0,5.269,5.586,19.1,19.1,0,0,0,16.683,0,12.575,12.575,0,0,0,5.285-5.586,19.778,19.778,0,0,0,1.812-8.833V462.418h.048v-12.6a2.876,2.876,0,0,1,2.872-2.873h5.506v-.015h4.44a9.052,9.052,0,0,0,9.041-9.042v-7.562Z" transform="translate(-625.497 -430.331)"/>
    </g>
  </g>
</svg>
