<?xml version="1.0" encoding="utf-8"?>
<!-- Generator: Adobe Illustrator 26.0.1, SVG Export Plug-In . SVG Version: 6.00 Build 0)  -->
<svg version="1.1" id="Layer_1" xmlns="http://www.w3.org/2000/svg" xmlns:xlink="http://www.w3.org/1999/xlink" x="0px" y="0px"
	 viewBox="0 0 950 679" style="enable-background:new 0 0 950 679;" xml:space="preserve">
<style type="text/css">
	.st0{fill-opacity:0.2549;}
	.st1{fill:#4F798E;}
	.st2{fill:#222B32;}
	.st3{fill:#D7EDF9;}
	.st4{fill:#FFB79F;}
	.st5{fill:#FFFFFF;}
	.st6{fill:#71CFEB;}
	.st7{fill:#C9D6DE;}
	.st8{fill:#00BCE9;}
	.st9{fill:#7D8B96;fill-opacity:0.9961;}
	.st10{fill:#3C464F;fill-opacity:0.9961;}
	.st11{fill:#FCB826;}
</style>
<g id="layer1">
	<g>
		<path class="st0" d="M775.8,506l-2.8,0.6c-5.8,0.6-16.6,1.1-32.3,1.5c-7.9,0.2-17,0.4-27.3,0.7c-3.6,0.1-21.9,0.4-54.9,0.8
			c-28.3,0.3-58.9,0.6-91.7,0.7c-16.4,0.1-33.3,0.1-50.9,0.2c-8.1,0-35.6,0-82.6,0c-44.4-0.1-70-0.3-76.9-0.3
			c-15.9-0.1-30.9-0.2-45.2-0.4c-28.5-0.3-53.7-0.6-75.6-1.1c-49-1-69.4-2.1-61.1-3.2c3.7-0.6,12.7-1.1,27.1-1.5
			c7.2-0.2,15.8-0.5,25.7-0.7c3.4-0.1,21.2-0.4,53.2-0.9c53.2-0.7,117.8-1,193.7-1.1c37.9,0,73.1,0.1,105.3,0.3
			c16.1,0.1,31.6,0.2,46.3,0.3c35.6,0.4,56.1,0.6,61.5,0.7c25.2,0.4,45,0.8,59.4,1.3c7.2,0.2,13.1,0.5,17.6,0.7
			C773.5,505.4,777.2,505.8,775.8,506"/>
	</g>
	<g>
		<path class="st1" d="M259.7,187.7C259.7,187.7,259.6,187.7,259.7,187.7L259.7,187.7c-6.9,0-12.2,5.3-12.2,12.2l0,245.6
			c0,6.9,5.3,12.2,12.2,12.2l0,0l419.6,0l0,0c6.9,0,12.2-5.3,12.2-12.2V199.9c0-6.9-5.3-12.2-12.1-12.2l0,0c0,0,0,0,0,0L259.7,187.7
			z"/>
	</g>
	<g>
		<path class="st2" d="M259.7,172.6c-15,0-27.3,12.3-27.3,27.3v245.6c0,15,12.3,27.3,27.3,27.3l419.6,0c15,0,27.3-12.3,27.3-27.3
			l0-245.6c0-15-12.3-27.3-27.3-27.3L259.7,172.6L259.7,172.6z M259.7,188.2l419.6,0c6.6,0,11.7,5.1,11.7,11.7v245.6
			c0,6.6-5.1,11.7-11.7,11.7l-419.6,0c-6.6,0-11.7-5.1-11.7-11.7l0-245.6C248,193.3,253.1,188.2,259.7,188.2L259.7,188.2z"/>
	</g>
	<g>
		<path d="M430.4,483.6l78.1,0c1.2,0,2.2,1,2.2,2.2c0,1.2-1,2.2-2.2,2.2l-78.1,0c-1.2,0-2.2-1-2.2-2.2
			C428.3,484.6,429.2,483.6,430.4,483.6z"/>
	</g>
	<g>
		<path class="st3" d="M523.1,539.6L523.1,539.6L523.1,539.6L523.1,539.6"/>
	</g>
	<g>
		<path class="st4" d="M705.5,421.1L705.5,421.1L705.5,421.1L705.5,421.1"/>
	</g>
	<g>
		<path class="st2" d="M207.4,477.4c0,16.5,11.4,29.8,25.5,29.8l473.1,0c14.1,0,25.5-13.3,25.5-29.8H207.4L207.4,477.4z"/>
	</g>
	<g>
		<path class="st5" d="M538.4,278.9l77.7-11.5l77.7-11.5c6.7,45.4,13.4,90.9,20.2,136.3l-155.5,23
			C551.9,369.8,545.2,324.4,538.4,278.9"/>
	</g>
	<g>
		<path class="st6" d="M637.1,288.4c4.9-0.7,8.3-5.3,7.6-10.2c-0.7-4.9-5.3-8.3-10.2-7.6c-4.9,0.7-8.3,5.3-7.6,10.2
			C627.6,285.7,632.2,289.1,637.1,288.4z"/>
	</g>
	<g>
		<path class="st6" d="M642.8,286.7c-1.5,1.6-3.6,2.8-6,3.1c-2.3,0.3-4.6-0.1-6.5-1.2c-5.5,1.7-9.1,7.3-8.2,13.2
			c1,6.6,5.7,1.5,12.2,0.5l9.6-1.4c6.6-1,12.5,2.5,11.5-4.1C654.5,290.7,649,286.3,642.8,286.7z"/>
	</g>
	<g>
		<path class="st7" d="M573.1,332l51.5-7.6l51.5-7.6c1,6.7,2,13.4,3,20c-34.3,5.1-68.6,10.1-102.9,15.2
			C575.1,345.4,574.1,338.7,573.1,332"/>
	</g>
	<g>
		<path class="st2" d="M586.1,334.6l0.7,4.4l-4.2-0.7l-0.5,3.2l4.2,0.7l-2.1,3.9l2.8,1.5l2.1-4l3.1,3.2l2.3-2.2l-3-3l3.9-2l-1.4-2.8
			l-4.1,2l-0.7-4.7L586.1,334.6z"/>
	</g>
	<g>
		<path class="st2" d="M602.3,332.2l0.7,4.4l-4.2-0.7l-0.5,3.2l4.2,0.7l-2.1,3.9l2.8,1.5l2.1-4l3.1,3.2l2.3-2.2l-3-3l3.9-2l-1.4-2.8
			l-4.1,2l-0.7-4.7L602.3,332.2z"/>
	</g>
	<g>
		<path class="st2" d="M618.6,329.8l0.7,4.4l-4.2-0.7l-0.5,3.2l4.2,0.7l-2.1,3.9l2.8,1.5l2.1-4l3.1,3.2l2.3-2.2l-3-3l3.9-2l-1.4-2.8
			l-4.1,2l-0.7-4.7L618.6,329.8z"/>
	</g>
	<g>
		<path class="st2" d="M634.9,327.4l0.7,4.4l-4.2-0.7l-0.5,3.2l4.2,0.7l-2.1,3.9l2.8,1.5l2.1-4l3.1,3.2l2.3-2.2l-3-3l3.9-2l-1.4-2.8
			l-4.1,2l-0.7-4.7L634.9,327.4z"/>
	</g>
	<g>
		<path class="st7" d="M577,358.4L680,343.2l3,20L580,378.4L577,358.4"/>
	</g>
	<g>
		<path class="st2" d="M589.9,359.1l0.7,4.4l-4.2-0.7l-0.5,3.2l4.2,0.7l-2.1,3.9l2.8,1.5l2.1-4l3.1,3.2l2.3-2.2l-3-3l3.9-2l-1.4-2.8
			l-4.1,2l-0.7-4.7L589.9,359.1z"/>
	</g>
	<g>
		<path class="st2" d="M606.2,356.6l0.7,4.4l-4.2-0.7l-0.5,3.2l4.2,0.7l-2.1,3.9l2.8,1.5l2.1-4l3.1,3.2l2.3-2.2l-3-3l3.9-2l-1.4-2.8
			l-4.1,2l-0.7-4.7L606.2,356.6z"/>
	</g>
	<g>
		<path class="st2" d="M622.5,354.2l0.7,4.4l-4.2-0.7l-0.5,3.2l4.2,0.7l-2.1,3.9l2.8,1.5l2.1-4l3.1,3.2l2.3-2.2l-3-3l3.9-2l-1.4-2.8
			l-4.1,2l-0.7-4.7L622.5,354.2z"/>
	</g>
	<g>
		<path class="st8" d="M601.8,383.7l30.9-4.6l30.9-4.6c0.8,5.7,1.7,11.4,2.5,17.1c-20.6,3-41.2,6.1-61.8,9.1
			C603.5,395.1,602.6,389.4,601.8,383.7"/>
	</g>
	<g>
		<path class="st5" d="M638.3,380.8c-0.1,0-0.2,0-0.3,0.1c-0.1,0-0.2,0.1-0.3,0.1c0,0.1,0,0.2,0,0.3c0,0.1,0,0.2,0,0.3
			c0,0.1,0,0.2,0.1,0.3c0,0.1,0,0.2,0.1,0.3c0.1,0,0.2,0,0.4,0c0.1,0,0.2,0,0.3,0c0.1,0,0.2,0,0.3-0.1c0.1,0,0.2-0.1,0.3-0.1
			c0-0.1,0-0.2,0-0.3c0-0.1,0-0.2,0-0.3c0-0.1,0-0.2-0.1-0.3c0-0.1,0-0.2-0.1-0.3c-0.1,0-0.2,0-0.3,0
			C638.5,380.8,638.4,380.8,638.3,380.8z M633.4,385.1c0.4-0.1,0.8,0,1.1,0.2c0.3,0.2,0.4,0.5,0.5,0.9c0.1,0.4,0,0.7-0.2,1
			c-0.2,0.3-0.5,0.5-0.9,0.5c-0.4,0.1-0.8,0-1.1-0.2c-0.2-0.2-0.4-0.5-0.5-0.9c-0.1-0.4,0-0.7,0.2-1
			C632.7,385.3,633,385.1,633.4,385.1z M626.6,386.2c0.6-0.1,1,0.1,1.4,0.4c0.3,0.4,0.6,0.9,0.7,1.7c0.1,0.7,0.1,1.3-0.2,1.8
			c-0.2,0.5-0.6,0.7-1.2,0.8c-0.6,0.1-1-0.1-1.4-0.4c-0.3-0.4-0.5-0.9-0.7-1.7c-0.1-0.7-0.1-1.3,0.2-1.8
			C625.6,386.6,626,386.3,626.6,386.2z M637.5,383.7c0,0.1,0,0.1,0,0.2c0,0.1,0,0.2,0,0.3c0,0.1,0,0.2,0.1,0.3c0,0.1,0,0.2,0.1,0.2
			l0.8-0.1l0.8,5.4c0.1,0,0.2,0,0.3,0c0.1,0,0.2,0,0.3,0c0.1,0,0.2,0,0.3-0.1c0.1,0,0.2-0.1,0.3-0.1l-0.9-6.4L637.5,383.7z
			 M644.7,382.5c-0.3,0-0.5,0.1-0.7,0.2c-0.2,0.1-0.4,0.2-0.5,0.4c-0.1,0.1-0.3,0.3-0.4,0.4c-0.1,0.2-0.2,0.3-0.2,0.5
			c0-0.1-0.1-0.3-0.1-0.5c-0.1-0.2-0.1-0.4-0.1-0.5c-0.1,0-0.2,0-0.3,0c-0.1,0-0.2,0-0.3,0c-0.1,0-0.2,0-0.3,0.1
			c-0.1,0-0.2,0-0.3,0.1l0.9,6.4c0.1,0,0.2,0,0.3,0s0.2,0,0.3,0c0.1,0,0.2,0,0.3-0.1c0.1,0,0.2-0.1,0.3-0.1l-0.5-3.2
			c-0.1-0.4-0.1-0.7,0-1c0.1-0.3,0.1-0.5,0.3-0.7c0.1-0.2,0.3-0.4,0.5-0.5c0.2-0.1,0.4-0.2,0.6-0.2c0.4-0.1,0.7,0,0.9,0.3
			c0.2,0.2,0.4,0.7,0.5,1.3l0.5,3.7c0.1,0,0.2,0,0.3,0c0.1,0,0.2,0,0.3,0c0.1,0,0.2,0,0.3-0.1c0.1,0,0.2-0.1,0.3-0.1l-0.6-4
			c-0.1-0.8-0.4-1.4-0.8-1.8C646,382.5,645.4,382.4,644.7,382.5z M620.3,383.4c-0.1,0-0.2,0-0.3,0.1c-0.1,0-0.2,0.1-0.3,0.1l1.1,7.5
			c0,0.3,0.1,0.6,0.3,0.8c0.1,0.2,0.3,0.4,0.5,0.5c0.2,0.1,0.4,0.2,0.6,0.2c0.2,0,0.4,0,0.7,0c0.1,0,0.3-0.1,0.5-0.1
			c0.2,0,0.3-0.1,0.4-0.1c-0.1-0.3-0.1-0.6-0.3-0.9c-0.1,0-0.1,0.1-0.2,0.1c-0.1,0-0.2,0-0.2,0c-0.1,0-0.2,0-0.3,0
			c-0.1,0-0.2,0-0.3-0.1c-0.1-0.1-0.1-0.1-0.2-0.3c-0.1-0.1-0.1-0.3-0.1-0.5l-1.1-7.2c-0.1,0-0.2,0-0.3,0
			C620.5,383.4,620.4,383.4,620.3,383.4z M626.4,385.2c-0.5,0.1-0.9,0.2-1.3,0.5c-0.3,0.2-0.6,0.5-0.8,0.8c-0.2,0.3-0.3,0.7-0.4,1.1
			c-0.1,0.4,0,0.9,0,1.3c0.1,0.5,0.2,0.9,0.4,1.3c0.2,0.4,0.4,0.7,0.7,1c0.3,0.3,0.6,0.5,1,0.6c0.4,0.1,0.8,0.1,1.3,0.1
			c0.5-0.1,0.9-0.2,1.3-0.5c0.3-0.2,0.6-0.5,0.8-0.8c0.2-0.3,0.3-0.7,0.4-1.1c0.1-0.4,0-0.9,0-1.3c-0.1-0.5-0.2-0.9-0.4-1.3
			c-0.2-0.4-0.4-0.7-0.7-1c-0.3-0.3-0.6-0.5-1-0.6C627.4,385.2,626.9,385.1,626.4,385.2z M633.7,391C633.7,391,633.7,391,633.7,391
			l1.5-0.2c0.4-0.1,0.7,0,0.9,0.1c0.2,0.1,0.3,0.3,0.3,0.5c0,0.3-0.1,0.6-0.4,0.9c-0.3,0.3-0.8,0.5-1.5,0.6c-0.2,0-0.4,0-0.6,0
			c-0.2,0-0.4,0-0.5-0.1c-0.1,0-0.3-0.1-0.4-0.2c-0.1-0.1-0.2-0.2-0.2-0.4c0-0.3,0-0.6,0.2-0.8C633.1,391.2,633.3,391,633.7,391z
			 M633.3,384.2c-0.4,0.1-0.8,0.2-1.1,0.3s-0.6,0.4-0.7,0.6c-0.2,0.2-0.3,0.5-0.4,0.8c-0.1,0.3-0.1,0.6,0,0.9c0.1,0.4,0.2,0.7,0.4,1
			c0.2,0.3,0.5,0.5,0.8,0.6c-0.2,0.2-0.4,0.4-0.5,0.7c-0.1,0.2-0.1,0.5-0.1,0.8c0,0.2,0.1,0.4,0.3,0.6c0.1,0.1,0.3,0.3,0.5,0.3
			c-0.3,0.2-0.5,0.5-0.6,0.8c-0.1,0.3-0.2,0.6-0.1,0.9c0.1,0.6,0.4,1,0.9,1.2c0.5,0.2,1.2,0.2,2,0.1c0.5-0.1,0.9-0.2,1.3-0.4
			c0.4-0.2,0.7-0.4,1-0.6c0.3-0.2,0.5-0.5,0.6-0.8c0.1-0.3,0.2-0.6,0.1-0.9c-0.1-0.5-0.3-0.9-0.7-1.2c-0.4-0.2-0.9-0.3-1.7-0.2
			l-1.7,0.2c-0.4,0-0.6,0-0.7-0.1c-0.1-0.1-0.2-0.2-0.2-0.4c0-0.2,0-0.3,0.1-0.5c0.1-0.1,0.2-0.3,0.3-0.3c0.3,0,0.6,0,0.9,0
			c0.4-0.1,0.7-0.2,1-0.3c0.3-0.1,0.6-0.3,0.8-0.6c0.2-0.2,0.3-0.5,0.4-0.8c0.1-0.3,0.1-0.6,0.1-0.9c0-0.2-0.1-0.4-0.2-0.6
			c-0.1-0.2-0.2-0.3-0.3-0.4l1.1-0.2c0-0.1,0-0.2,0-0.3c0-0.1,0-0.2,0-0.3c0-0.2-0.1-0.4-0.1-0.5c-0.3,0.1-0.6,0.1-0.9,0.3
			c-0.3,0.1-0.5,0.3-0.6,0.4c-0.2-0.1-0.5-0.2-0.8-0.3C634,384.1,633.7,384.1,633.3,384.2z"/>
	</g>
	<g>
		<path class="st9" d="M725.7,223.6L725.7,223.6L725.7,223.6L725.7,223.6"/>
	</g>
	<g>
		<path class="st10" d="M712.1,214.7L712.1,214.7L712.1,214.7L712.1,214.7L712.1,214.7L712.1,214.7L712.1,214.7
			C712.1,214.7,712.1,214.7,712.1,214.7"/>
	</g>
	<g>
		<path class="st10" d="M717,214.8L717,214.8L717,214.8L717,214.8L717,214.8L717,214.8L717,214.8L717,214.8"/>
	</g>
	<g>
		<path class="st11" d="M551.7,221.6c-24.7-0.1-44.7,19.8-44.7,44.5l-0.1,49.6l12.4,0l0.1-49.6c0-17.8,14.5-32.2,32.3-32.1
			c17.8,0.1,32.2,14.5,32.1,32.3l-0.1,49.6l12.4,0l0.1-49.6C596.3,241.6,576.5,221.6,551.7,221.6z"/>
	</g>
	<g>
		<path class="st11" d="M528.5,312.5l-136.4-0.4l-0.3,105.6l136.4,0.4L528.5,312.5z M528.5,312.5l-136.4-0.4l-0.3,105.6l136.4,0.4
			L528.5,312.5z M528.5,312.5l-136.4-0.4l-0.3,105.6l136.4,0.4L528.5,312.5z M528.5,312.5l-136.4-0.4l-0.3,105.6l136.4,0.4
			L528.5,312.5z"/>
	</g>
	<g>
		<path class="st1" d="M447.1,369.3l0.2,1.5c0.7,3,2.3,5.3,4.9,7c2.6,1.7,5.6,2.2,9,1.7c3.2-0.7,5.7-2.2,7.5-4.7
			c0.6-0.8,1-1.6,1.4-2.5l0.4-1.4c0.2-1,0.3-1.9,0.2-3c-0.3-3.1-1.6-5.7-3.9-7.6c-2.3-1.9-5.2-2.9-8.6-2.7c-3.3,0.3-6.1,1.5-8.2,3.7
			C448,363.4,447,366.1,447.1,369.3"/>
	</g>
	<g>
		<path class="st1" d="M454.5,372.7L454.5,372.7l-6.1,34.3c7.5-0.1,14.9-0.3,22.4-0.4c-2.7-11.5-5.3-23.1-8-34.6L454.5,372.7"/>
	</g>
</g>
</svg>
