<svg xmlns="http://www.w3.org/2000/svg" viewBox="0 0 51.03 51.03"><defs><style>.cls-1{fill:#a29fce;}.cls-2{fill:#6166af;}</style></defs><g id="Layer_2" data-name="Layer 2"><g id="Layer_1-2" data-name="Layer 1"><path class="cls-1" d="M30.62,25.51H20.41A2.54,2.54,0,0,1,17.86,23h0v-5.1a7.66,7.66,0,0,1,15.31,0V23a2.55,2.55,0,0,1-2.55,2.55ZM23,20.41h5.11V17.86a2.56,2.56,0,0,0-5.11,0Z"/><path class="cls-2" d="M48.48,20.41a2.55,2.55,0,0,1-2.55-2.55h0V5.1H33.17a2.55,2.55,0,0,1,0-5.1H48.48A2.55,2.55,0,0,1,51,2.55h0V17.86a2.55,2.55,0,0,1-2.55,2.55Zm-45.93,0A2.55,2.55,0,0,1,0,17.86H0V2.55A2.55,2.55,0,0,1,2.55,0H17.86a2.55,2.55,0,1,1,0,5.1H5.1V17.86a2.55,2.55,0,0,1-2.55,2.55ZM17.86,51H2.55A2.55,2.55,0,0,1,0,48.48H0V33.17a2.55,2.55,0,0,1,5.1,0V45.93H17.86a2.55,2.55,0,0,1,0,5.1Z"/><rect class="cls-1" x="12.76" y="20.41" width="25.51" height="20.41" rx="5.1"/><path class="cls-2" d="M27,26.93a1.44,1.44,0,1,0-2.15,1.24v2.35a.72.72,0,1,0,1.43,0V28.17A1.43,1.43,0,0,0,27,26.93Z"/><path class="cls-1" d="M25.51,21.18a7.19,7.19,0,1,0,7.2,7.19A7.19,7.19,0,0,0,25.51,21.18Zm.72,7v2.35a.72.72,0,1,1-1.43,0V28.17a1.44,1.44,0,1,1,2-.53A1.5,1.5,0,0,1,26.23,28.17Z"/></g></g></svg>