<svg xmlns="http://www.w3.org/2000/svg" viewBox="0 0 58.88 41.11"><defs><style>.cls-1{fill:#c3bfdf;}.cls-1,.cls-2{stroke:#6166af;stroke-linecap:round;stroke-linejoin:round;}.cls-2{fill:#fff;}</style></defs><g id="Layer_2" data-name="Layer 2"><g id="Layer_1-2" data-name="Layer 1"><g id="Technologies"><g id="laptop"><path class="cls-1" d="M54.53,34.29V1.88A1.37,1.37,0,0,0,53.16.5H5.72A1.37,1.37,0,0,0,4.35,1.88V34.29Z"/><path class="cls-1" d="M58.38,34.35v4.88A1.38,1.38,0,0,1,57,40.61H1.88A1.38,1.38,0,0,1,.5,39.23V34.35Z"/></g></g><g id="SEO"><path class="cls-2" d="M24.58,4A11.92,11.92,0,1,0,36.5,15.91,11.92,11.92,0,0,0,24.58,4Zm0,20.1a8.18,8.18,0,1,1,8.18-8.18A8.18,8.18,0,0,1,24.58,24.09Z"/><path class="cls-2" d="M39.8,34.2l-3.3-3.3-1.42-1.42a2.17,2.17,0,1,1,3.08-3.07l6.51,6.52c.32.32,1,.86.6,1.12S39.8,34.2,39.8,34.2Z"/><path class="cls-2" d="M32,25.23l2.47,2.48a2.14,2.14,0,0,1,1.9-1.92L33.9,23.33A12.19,12.19,0,0,1,32,25.23Z"/></g></g></g></svg>