<svg xmlns="http://www.w3.org/2000/svg" viewBox="0 0 57.29 64.04"><defs><style>.cls-1{fill:#c3bfdf;}.cls-2{fill:#a29fce;}.cls-3{fill:#6166af;}</style></defs><g id="Layer_2" data-name="Layer 2"><g id="Layer_1-2" data-name="Layer 1"><path class="cls-1" d="M56.38,16,28.65,32,.91,16a6.67,6.67,0,0,1,2.36-2.39L25.28.88A6.91,6.91,0,0,1,32,.88L54,13.59A6.67,6.67,0,0,1,56.38,16Z"/><path class="cls-2" d="M28.65,32V64a7.08,7.08,0,0,1-3.07-.7L3.37,50.49A6.73,6.73,0,0,1,0,44.66V19.39A7,7,0,0,1,.91,16Z"/><path class="cls-3" d="M57.29,19.39V44.66a6.71,6.71,0,0,1-3.37,5.83L31.61,63.37a6.92,6.92,0,0,1-3,.67V32L56.38,16A6.91,6.91,0,0,1,57.29,19.39Z"/></g></g></svg>