<svg xmlns="http://www.w3.org/2000/svg" viewBox="0 0 55 27.49"><defs><style>.cls-1{fill:#6166af;}</style></defs><g id="Layer_2" data-name="Layer 2"><g id="Layer_1-2" data-name="Layer 1"><path class="cls-1" d="M33,24.74A2.75,2.75,0,0,1,30.26,22a2.79,2.79,0,0,1,.8-1.95L50.32.79a2.75,2.75,0,0,1,3.89,3.89L35,23.93A2.72,2.72,0,0,1,33,24.74ZM2.75,27.49a2.75,2.75,0,0,1-1.94-4.7l16.5-16.5a2.75,2.75,0,0,1,3.89,3.89L4.69,26.68A2.72,2.72,0,0,1,2.75,27.49Z"/><path class="cls-1" d="M33,24.74a2.76,2.76,0,0,1-1.95-.81L17.31,10.18A2.75,2.75,0,0,1,21.2,6.29L35,20A2.76,2.76,0,0,1,33,24.74Z"/></g></g></svg>