<svg xmlns="http://www.w3.org/2000/svg" viewBox="0 0 76.84 59.48"><defs><style>.cls-1{fill:#c3bfdf;}.cls-2{fill:#a29fce;}.cls-3{fill:#6166af;}.cls-4{fill:#fff;}.cls-4,.cls-5{stroke:#6166af;}.cls-4,.cls-5,.cls-6{stroke-linecap:round;stroke-linejoin:round;}.cls-5,.cls-6{fill:none;}.cls-6{stroke:#a29fce;}</style></defs><g id="Layer_2" data-name="Layer 2"><g id="Layer_1-2" data-name="Layer 1"><path class="cls-1" d="M29.17,36.14a2.9,2.9,0,0,1-1.46-.39L1.46,20.59a2.91,2.91,0,0,1,0-5.05L27.71.39a2.93,2.93,0,0,1,2.92,0L56.88,15.54a2.9,2.9,0,0,1,1.07,4,2.82,2.82,0,0,1-1.07,1.07L30.63,35.75A2.88,2.88,0,0,1,29.17,36.14Z"/><path class="cls-2" d="M56.88,27.21,51.15,23.9,30.63,35.75a2.93,2.93,0,0,1-2.92,0L7.19,23.9,1.46,27.21a2.91,2.91,0,0,0-1.07,4,3,3,0,0,0,1.07,1.07L27.71,47.42a2.93,2.93,0,0,0,2.92,0L56.88,32.26a2.92,2.92,0,0,0,1.07-4A2.86,2.86,0,0,0,56.88,27.21Z"/><path class="cls-3" d="M56.88,38.87l-5.73-3.3L30.63,47.42a2.93,2.93,0,0,1-2.92,0L7.19,35.57l-5.73,3.3a2.93,2.93,0,0,0-1.07,4,3,3,0,0,0,1.07,1.07L27.71,59.09a2.93,2.93,0,0,0,2.92,0L56.88,43.93a2.92,2.92,0,0,0,1.07-4A3,3,0,0,0,56.88,38.87Z"/><g id="Information"><rect class="cls-4" x="39.85" y="5.59" width="36.49" height="48.3"/><rect class="cls-2" x="57.31" y="20.85" width="1.32" height="5.87"/><path class="cls-2" d="M57.26,18.81a.71.71,0,1,1,.71.72A.71.71,0,0,1,57.26,18.81Z"/><path class="cls-5" d="M48.7,22.41A9.27,9.27,0,1,1,58,31.67,9.27,9.27,0,0,1,48.7,22.41Z"/><line class="cls-6" x1="47.02" y1="38.47" x2="68.92" y2="38.47"/><line class="cls-6" x1="47.02" y1="45.77" x2="68.92" y2="45.77"/></g></g></g></svg>