<svg xmlns="http://www.w3.org/2000/svg" viewBox="0 0 53.71 53.71"><defs><style>.cls-1{fill:#c3bfdf;}.cls-2{fill:#6166af;}.cls-3{fill:#a29fce;}</style></defs><g id="Layer_2" data-name="Layer 2"><g id="Layer_1-2" data-name="Layer 1"><path class="cls-1" d="M12.21,53.71H2.44A2.44,2.44,0,0,1,0,51.27H0V31.74A2.44,2.44,0,0,1,2.44,29.3h9.77a2.44,2.44,0,0,1,2.44,2.44h0V51.27a2.44,2.44,0,0,1-2.44,2.44Z"/><path class="cls-2" d="M31.74,53.71H22a2.44,2.44,0,0,1-2.44-2.44h0V2.44A2.44,2.44,0,0,1,22,0h9.77a2.44,2.44,0,0,1,2.44,2.44h0V51.27a2.44,2.44,0,0,1-2.44,2.44Z"/><path class="cls-3" d="M51.27,53.71H41.51a2.45,2.45,0,0,1-2.45-2.44h0V22a2.45,2.45,0,0,1,2.44-2.44h9.77A2.44,2.44,0,0,1,53.71,22h0v29.3a2.44,2.44,0,0,1-2.44,2.44Z"/></g></g></svg>