<svg xmlns="http://www.w3.org/2000/svg" viewBox="0 0 71.36 61.99"><defs><style>.cls-1{fill:#fff;}.cls-1,.cls-2,.cls-3{stroke:#6166af;stroke-linecap:round;stroke-linejoin:round;}.cls-2{fill:none;}.cls-3{fill:#c3bfdf;}</style></defs><g id="Layer_2" data-name="Layer 2"><g id="Layer_1-2" data-name="Layer 1"><g id="Training"><g id="Training-2" data-name="Training"><rect class="cls-1" x="39.79" y="17.72" width="5.48" height="30.6" rx="2.41"/><path class="cls-1" d="M63.41,50a2.42,2.42,0,0,1-.89,3.3l-.57.33a2.42,2.42,0,0,1-3.29-.88L45.77,30.46a2.41,2.41,0,0,1,.89-3.29l.57-.33a2.41,2.41,0,0,1,3.29.88Z"/><path class="cls-1" d="M26.4,52.79a2.43,2.43,0,0,1-3.3.88l-.57-.33a2.43,2.43,0,0,1-.88-3.3L34.54,27.72a2.41,2.41,0,0,1,3.29-.88l.57.33a2.41,2.41,0,0,1,.89,3.29Z"/><rect class="cls-1" x="15.83" y="0.5" width="55.02" height="35.12" rx="2.41"/><path class="cls-2" d="M40.3,18.06a2.51,2.51,0,1,1-2.51-2.5A2.51,2.51,0,0,1,40.3,18.06Z"/><path class="cls-2" d="M59.38,9.62a2.51,2.51,0,1,1-2.51-2.51A2.5,2.5,0,0,1,59.38,9.62Z"/><path class="cls-2" d="M51.4,18.06a2.51,2.51,0,1,1-2.5-2.5A2.5,2.5,0,0,1,51.4,18.06Z"/><line class="cls-2" x1="50.69" y1="15.91" x2="55" y2="11.65"/><line class="cls-2" x1="40.28" y1="18.3" x2="46.46" y2="18.64"/></g><path class="cls-3" d="M14.53,7.61A4.86,4.86,0,1,1,9.67,2.74,4.87,4.87,0,0,1,14.53,7.61Z"/><path class="cls-3" d="M15.81,21.66V38h0V58.78a2.72,2.72,0,0,1-2.72,2.71H13a2.71,2.71,0,0,1-2.71-2.71V38.05s0,0,0-.07h0v20.8a2.72,2.72,0,0,1-2.71,2.71H7.57a2.71,2.71,0,0,1-2.7-2.71V21.69h0V37.21a2.08,2.08,0,0,1-2.17,2h0a2.08,2.08,0,0,1-2.16-2V17.56a2.72,2.72,0,0,1,2.72-2.72h2l9.47,0H16.4c1.86,0,3.44,2.75,3.44,2.75l4.72,7.57,7.77-5,0,0a2.08,2.08,0,0,1,2.89.48h0a2.39,2.39,0,0,1-.48,3.16l-8.35,6.24A4.4,4.4,0,0,1,24,31.38h0c-1.2,0-1.58-.28-2.48-1.31l-5.68-8.41"/></g></g></g></svg>