<svg xmlns="http://www.w3.org/2000/svg" viewBox="0 0 58.88 41.11"><defs><style>.cls-1,.cls-2{fill:none;stroke-linecap:round;stroke-linejoin:round;}.cls-1{stroke:#a29fce;}.cls-2{stroke:#6166af;}</style></defs><g id="Layer_2" data-name="Layer 2"><g id="Layer_1-2" data-name="Layer 1"><g id="Technologies"><path class="cls-1" d="M17.94,18.51h3a3,3,0,0,1,3,3V34.18"/><path class="cls-1" d="M17.94,18.51a3,3,0,1,1-3-3A3,3,0,0,1,17.94,18.51Z"/><path class="cls-1" d="M40.94,18.51h-3a3,3,0,0,0-3,3V34.18"/><path class="cls-1" d="M40.94,18.51a3,3,0,1,0,3-3A3,3,0,0,0,40.94,18.51Z"/><line class="cls-1" x1="29.36" y1="13.18" x2="29.36" y2="34.18"/><path class="cls-1" d="M29.36,13.18a3,3,0,1,1,3-3A3,3,0,0,1,29.36,13.18Z"/><g id="laptop"><path class="cls-2" d="M54.53,34.29V1.88A1.37,1.37,0,0,0,53.16.5H5.72A1.37,1.37,0,0,0,4.35,1.88V34.29Z"/><path class="cls-2" d="M58.38,34.35v4.88A1.38,1.38,0,0,1,57,40.61H1.88A1.38,1.38,0,0,1,.5,39.23V34.35Z"/></g></g></g></g></svg>