<?xml version="1.0" encoding="utf-8"?>
<!-- Generator: Adobe Illustrator 26.0.1, SVG Export Plug-In . SVG Version: 6.00 Build 0)  -->
<svg version="1.1" id="Layer_1" xmlns="http://www.w3.org/2000/svg" xmlns:xlink="http://www.w3.org/1999/xlink" x="0px" y="0px"
	 viewBox="0 0 1809 1397" style="enable-background:new 0 0 1809 1397;" xml:space="preserve">
<style type="text/css">
	.st0{fill-opacity:0.2549;}
	.st1{fill:#44C5E5;}
	.st2{fill:#222B32;}
	.st3{fill:#D7EDF9;}
	.st4{fill:#FFB79F;}
	.st5{fill:#FFFFFF;}
	.st6{fill:#71CFEB;}
	.st7{fill:#C9D6DE;}
	.st8{fill:#00BCE9;}
</style>
<g id="layer1">
	<g>
		<path class="st0" d="M1574.1,1058.1l-6.1,1.4c-12.9,1.2-36.8,2.4-71.7,3.4c-17.5,0.5-37.7,1-60.7,1.5c-8,0.3-48.7,0.9-122,1.9
			c-62.9,0.7-130.8,1.3-203.7,1.6c-36.4,0.2-74.1,0.3-113,0.4c-17.9,0.1-79.1,0.1-183.5,0c-98.6-0.3-155.5-0.6-170.9-0.7
			c-35.3-0.2-68.7-0.5-100.4-0.8c-63.3-0.6-119.3-1.4-168.1-2.4c-109-2.3-154.2-4.7-135.7-7.2c8.1-1.2,28.2-2.4,60.3-3.4
			c16-0.5,35.1-1,57.1-1.5c7.6-0.3,47-0.9,118.2-2c118.3-1.5,261.8-2.3,430.5-2.4c84.3,0,162.4,0.2,234.1,0.6
			c35.9,0.2,70.2,0.4,102.9,0.7c79.1,0.8,124.6,1.3,136.6,1.6c56,0.9,100,1.8,132.1,2.9c16,0.5,29.1,1.1,39.1,1.6
			C1568.9,1056.8,1577.3,1057.7,1574.1,1058.1"/>
	</g>
	<g>
		<path class="st1" d="M427.1,350.8C427,350.8,427,350.8,427.1,350.8L427.1,350.8c-15.3,0-27,11.8-27,27.1v545.9
			c0,15.3,11.7,27,27,27.1l0,0h932.5l0,0c15.3,0,27-11.7,27-27V378c0-15.3-11.7-27.1-27-27.1l0,0l0,0L427.1,350.8z"/>
	</g>
	<g>
		<path class="st2" d="M427.1,317.2c-33.3,0-60.6,27.4-60.6,60.7v545.9c0,33.3,27.3,60.6,60.6,60.6h932.5
			c33.3,0,60.6-27.4,60.6-60.7V377.8c0-33.3-27.3-60.7-60.6-60.7L427.1,317.2L427.1,317.2z M427.1,351.9h932.5
			c14.7,0,25.9,11.3,25.9,26v545.9c0,14.7-11.2,25.9-25.9,25.9H427.1c-14.7,0-25.9-11.3-25.9-25.9V377.9
			C401.1,363.2,412.4,351.9,427.1,351.9L427.1,351.9z"/>
	</g>
	<g>
		<path d="M806.6,1008.4h173.5c2.7,0,4.8,2.1,4.8,4.8s-2.2,4.8-4.8,4.8H806.6c-2.7,0-4.8-2.2-4.8-4.9
			C801.7,1010.6,803.9,1008.4,806.6,1008.4z"/>
	</g>
	<g>
		<path class="st3" d="M1012.5,1132.9L1012.5,1132.9L1012.5,1132.9L1012.5,1132.9"/>
	</g>
	<g>
		<path class="st4" d="M1302.9,1025.7L1302.9,1025.7L1302.9,1025.7L1302.9,1025.7"/>
	</g>
	<g>
		<path class="st2" d="M310.8,994.5c0,36.7,25.3,66.2,56.8,66.2H1419c31.4,0,56.8-29.6,56.8-66.2L310.8,994.5L310.8,994.5z"/>
	</g>
	<g>
		<path class="st5" d="M567.7,375.9L837.2,336l269.5-39.9c23.3,157.5,46.6,315,69.9,472.5l-539,79.7
			C614.3,691,591,533.4,567.7,375.9"/>
	</g>
	<g>
		<g>
			<path class="st6" d="M876.3,429.2c-6.5,6.9-15.3,11.8-25.4,13.3c-9.9,1.5-19.4-0.5-27.6-5c-23.2,7.4-38.4,30.7-34.7,55.6
				c4.1,27.6,23.8,6.4,51.5,2.3l40.4-6c27.6-4.1,52.7,10.6,48.6-17.1C925.2,446.2,902.1,427.8,876.3,429.2z"/>
		</g>
		<g>
			<path class="st6" d="M852,436.3c20.7-3.1,35.1-22.4,32-43.1s-22.4-35.1-43.1-32c-20.7,3.1-35.1,22.4-32,43.1
				C811.9,425,831.3,439.4,852,436.3z"/>
		</g>
	</g>
	<g>
		<g>
			<path class="st7" d="M688,559.9l178.4-26.4l178.4-26.4c3.4,23.2,6.8,46.3,10.3,69.5c-118.9,17.6-237.9,35.2-356.8,52.8
				C694.8,606.2,691.4,583.1,688,559.9"/>
		</g>
		<g>
			<g>
				<g>
					<path class="st2" d="M732.8,568.9l2.3,15.2l-14.6-2.4l-1.8,11l14.6,2.4l-7.1,13.7l9.7,5.2l7.3-13.9l10.8,11l8-7.6l-10.2-10.4
						l13.4-6.8l-4.9-9.8l-14.1,6.9l-2.4-16.1L732.8,568.9z"/>
				</g>
			</g>
			<g>
				<g>
					<path class="st2" d="M789.2,560.6l2.3,15.2l-14.6-2.4l-1.8,11l14.6,2.4l-7.1,13.7l9.7,5.2l7.3-13.9l10.8,11l8-7.6l-10.2-10.4
						l13.4-6.8l-4.9-9.8l-14.1,6.9l-2.4-16.1L789.2,560.6z"/>
				</g>
			</g>
			<g>
				<g>
					<path class="st2" d="M845.7,552.2l2.3,15.2l-14.6-2.4l-1.8,11l14.6,2.4l-7.1,13.7l9.7,5.2l7.3-13.9l10.8,11l8-7.6l-10.2-10.4
						l13.4-6.8l-4.9-9.8l-14.1,6.9l-2.4-16.1L845.7,552.2z"/>
				</g>
			</g>
			<g>
				<g>
					<path class="st2" d="M902.2,543.9l2.3,15.2l-14.6-2.4l-1.8,11l14.6,2.4l-7.1,13.7l9.7,5.2l7.3-13.9l10.8,11l8-7.6l-10.2-10.4
						l13.4-6.8l-4.9-9.8l-14.1,6.9l-2.4-16.1L902.2,543.9z"/>
				</g>
			</g>
		</g>
	</g>
	<g>
		<g>
			<path class="st7" d="M701.5,651.3l356.8-52.8l10.3,69.5l-356.8,52.8L701.5,651.3"/>
		</g>
		<g>
			<g>
				<path class="st2" d="M746.1,653.6l2.3,15.2l-14.6-2.4l-1.8,11l14.6,2.4l-7.1,13.7l9.7,5.2l7.3-13.9l10.8,11l8-7.6l-10.2-10.4
					l13.4-6.8l-4.9-9.8l-14.1,6.9l-2.4-16.1L746.1,653.6z"/>
			</g>
		</g>
		<g>
			<g>
				<path class="st2" d="M802.6,645.3l2.3,15.2l-14.6-2.4l-1.8,11l14.6,2.4l-7.1,13.7l9.7,5.2l7.3-13.9l10.8,11l8-7.6l-10.3-10.4
					l13.4-6.8l-4.9-9.8l-14.1,6.9l-2.4-16.1L802.6,645.3z"/>
			</g>
		</g>
		<g>
			<g>
				<path class="st2" d="M859.1,636.9l2.3,15.2l-14.6-2.4l-1.8,11l14.6,2.4l-7.1,13.7l9.7,5.2l7.3-13.9l10.8,11l8-7.6l-10.2-10.4
					l13.4-6.8l-4.9-9.8l-14.1,6.9l-2.4-16.1L859.1,636.9z"/>
			</g>
		</g>
	</g>
	<g>
		<g>
			<path class="st8" d="M787.3,738.9l107.2-15.8l107.2-15.8c2.9,19.8,5.8,39.5,8.8,59.3c-71.4,10.6-142.9,21.1-214.3,31.7
				C793.1,778.4,790.2,758.7,787.3,738.9"/>
		</g>
		<g>
			<g>
				<path class="st5" d="M913.8,729.1c-0.3,0-0.7,0.1-1.1,0.2c-0.4,0.1-0.8,0.2-1.2,0.3c0,0.3,0,0.7,0,1.1c0.1,0.4,0.1,0.8,0.2,1.1
					c0,0.3,0.1,0.7,0.2,1.1c0.1,0.4,0.1,0.8,0.3,1.1c0.4,0,0.8,0,1.2,0s0.8-0.1,1.2-0.1c0.3,0,0.7-0.1,1.1-0.2
					c0.4-0.1,0.8-0.2,1.1-0.3c0-0.4,0-0.7,0-1.1c-0.1-0.4-0.1-0.8-0.2-1.1c0-0.3-0.1-0.7-0.2-1.1c-0.1-0.4-0.1-0.8-0.2-1.1
					c-0.4,0-0.7,0-1.2,0C914.5,729,914.1,729.1,913.8,729.1z M897,743.9c1.6-0.2,2.8,0,3.6,0.8c0.9,0.8,1.4,1.8,1.6,3.2
					c0.2,1.4,0,2.5-0.6,3.5s-1.7,1.6-3.3,1.8s-2.8,0-3.6-0.8s-1.4-1.8-1.6-3.2c-0.2-1.4,0-2.6,0.6-3.6
					C894.4,744.7,895.5,744.1,897,743.9z M873.2,747.8c2-0.3,3.6,0.2,4.7,1.5c1.2,1.3,1.9,3.2,2.3,5.7c0.4,2.6,0.2,4.6-0.5,6.2
					c-0.7,1.6-2.1,2.5-4.1,2.8s-3.6-0.2-4.7-1.5c-1.1-1.3-1.9-3.2-2.3-5.8c-0.4-2.6-0.2-4.6,0.5-6.2
					C869.8,749,871.2,748.1,873.2,747.8z M911,739.2c0,0.2,0,0.5,0,0.8s0,0.6,0.1,0.9c0,0.3,0.1,0.6,0.2,0.9
					c0.1,0.3,0.2,0.5,0.2,0.8l2.8-0.4l2.8,18.8c0.3,0,0.7,0,1.1,0c0.4,0,0.7-0.1,1-0.1s0.7-0.1,1.1-0.2c0.4-0.1,0.7-0.2,1-0.3
					l-3.3-22.1L911,739.2z M935.9,734.9c-0.9,0.1-1.7,0.4-2.4,0.8c-0.7,0.3-1.3,0.8-1.8,1.2c-0.5,0.5-1,1-1.4,1.5
					c-0.4,0.6-0.6,1.1-0.9,1.6c-0.1-0.5-0.2-1.1-0.4-1.8s-0.4-1.3-0.5-1.7c-0.3,0-0.6,0-0.9,0c-0.3,0-0.6,0-0.9,0.1
					c-0.3,0-0.6,0.1-0.9,0.2c-0.3,0.1-0.6,0.2-0.9,0.3l3.3,22.1c0.3,0,0.7,0,1.1,0c0.4,0,0.8-0.1,1.1-0.1s0.7-0.1,1.1-0.2
					c0.4-0.1,0.7-0.2,1-0.3l-1.7-11.2c-0.2-1.4-0.2-2.5,0-3.6c0.2-1,0.5-1.8,0.9-2.5c0.5-0.7,1-1.2,1.7-1.6c0.7-0.4,1.4-0.7,2.2-0.8
					c1.4-0.2,2.5,0.1,3.2,1c0.8,0.9,1.3,2.3,1.6,4.3l1.9,12.8c0.3,0,0.7,0,1.1,0c0.4,0,0.7-0.1,1-0.1s0.7-0.1,1.1-0.2
					c0.4-0.1,0.8-0.2,1.1-0.3l-2.1-14c-0.4-2.8-1.3-4.9-2.8-6.2C940.4,735,938.4,734.6,935.9,734.9z M851.5,738.1
					c-0.3,0-0.7,0.1-1.1,0.2c-0.4,0.1-0.7,0.2-1,0.3l3.8,25.9c0.2,1.1,0.5,2.1,0.9,2.8s1,1.3,1.6,1.7s1.3,0.6,2,0.7
					c0.7,0.1,1.5,0.1,2.4,0c0.5-0.1,1-0.2,1.6-0.3s1-0.3,1.4-0.5c-0.2-1.2-0.5-2.3-0.9-3.2c-0.2,0.1-0.5,0.2-0.8,0.3
					s-0.6,0.1-0.9,0.2c-0.4,0.1-0.7,0.1-1.1,0c-0.3,0-0.6-0.1-0.9-0.3c-0.3-0.2-0.5-0.5-0.7-1c-0.2-0.4-0.4-1.1-0.5-1.9l-3.7-24.9
					c-0.3,0-0.7,0-1.1,0C852.2,738,851.8,738,851.5,738.1z M872.7,744.3c-1.7,0.3-3.2,0.8-4.4,1.6s-2.2,1.8-2.9,2.9
					c-0.7,1.2-1.2,2.5-1.4,4s-0.2,3,0.1,4.7s0.7,3.1,1.3,4.5c0.6,1.3,1.4,2.5,2.4,3.4s2.2,1.6,3.6,2c1.4,0.4,2.9,0.4,4.7,0.2
					c1.7-0.3,3.2-0.8,4.4-1.6s2.2-1.7,2.9-2.9s1.2-2.5,1.4-4s0.2-3-0.1-4.7c-0.2-1.6-0.7-3.1-1.3-4.5c-0.6-1.3-1.4-2.5-2.4-3.4
					s-2.2-1.6-3.6-2C875.9,744.1,874.4,744,872.7,744.3z M897.9,764.3L897.9,764.3l5-0.6c1.5-0.2,2.5-0.1,3.1,0.3
					c0.6,0.4,1,1,1.1,1.9c0.2,1.1-0.3,2.2-1.5,3.2c-1.2,0.9-2.9,1.6-5.2,1.9c-0.8,0.1-1.5,0.2-2.2,0.1c-0.6,0-1.2-0.1-1.8-0.3
					c-0.5-0.2-0.9-0.4-1.2-0.8c-0.3-0.4-0.5-0.9-0.6-1.5c-0.1-1,0.1-1.9,0.6-2.7C895.8,764.9,896.7,764.4,897.9,764.3z M896.6,740.8
					c-1.4,0.2-2.7,0.6-3.7,1.2c-1.1,0.6-1.9,1.3-2.6,2.1c-0.6,0.8-1.1,1.7-1.4,2.7c-0.3,1-0.3,2.1-0.2,3.2c0.2,1.3,0.7,2.5,1.4,3.5
					c0.7,0.9,1.6,1.7,2.7,2.2c-0.7,0.7-1.3,1.5-1.6,2.4c-0.3,0.8-0.4,1.8-0.3,2.9c0.1,0.8,0.4,1.5,0.9,2s1,0.9,1.6,1.2
					c-0.9,0.7-1.6,1.6-2.1,2.6s-0.7,2.1-0.5,3.3c0.3,2,1.3,3.3,3,4s4,0.8,7,0.4c1.7-0.3,3.2-0.7,4.7-1.3c1.4-0.6,2.6-1.3,3.5-2.1
					c1-0.8,1.7-1.7,2.1-2.8c0.5-1,0.6-2.1,0.4-3.3c-0.3-1.8-1.1-3.1-2.4-4s-3.2-1.1-5.8-0.8l-5.7,0.8c-1.3,0.2-2.2,0.1-2.6-0.3
					c-0.4-0.3-0.7-0.7-0.8-1.3c-0.1-0.5,0-1.1,0.4-1.6c0.3-0.5,0.6-0.9,1-1.2c1,0.1,2.1,0.1,3.2-0.1c1.3-0.2,2.5-0.6,3.5-1.1
					s1.9-1.2,2.6-2c0.7-0.8,1.2-1.7,1.5-2.7s0.3-2.1,0.2-3.3c-0.1-0.7-0.3-1.4-0.6-1.9s-0.6-1-1-1.5l3.9-0.6c0-0.4,0-0.7,0-1.1
					c0-0.3-0.1-0.7-0.1-1c-0.1-0.7-0.2-1.3-0.4-1.8c-1.2,0.2-2.2,0.5-3.2,1c-0.9,0.4-1.7,0.9-2.2,1.5c-0.8-0.5-1.8-0.8-2.9-1
					C899.1,740.6,897.9,740.6,896.6,740.8z"/>
			</g>
		</g>
	</g>
	<g>
		<path d="M1044.5,0h-25.8l-1.5,85.1c0.6,3.5,4.9,5.5,12.9,5.8c7.8-0.3,12.1-2.2,12.9-5.7L1044.5,0z"/>
	</g>
	<g>
		<path d="M971.3,129L971.3,129c0,29.8,24.2,54,54,54l0,0c29.8,0,54-24.2,54-54l0,0c0-29.8-24.2-54-54-54l0,0
			C995.5,75.1,971.3,99.2,971.3,129L971.3,129 M997.1,129L997.1,129c0-15.6,12.6-28.2,28.2-28.2l0,0c15.6,0,28.2,12.6,28.2,28.2l0,0
			c0,15.6-12.6,28.2-28.2,28.2l0,0C1009.7,157.2,997.1,144.6,997.1,129z"/>
	</g>
	<g>
		<path d="M1012.8,179.9L1012.8,179.9L1012.8,179.9L1012.8,179.9l-1.5,261.1l13.5-12.8c-34.5-1.7-58.8-3.8-68.1-14.3l0,0
			c-9-10.1-7.2-31.9-3-64.5c0.9-7.1-4-13.5-11.1-14.4s-13.5,4-14.4,11.1l0,0c-3.5,26.6-9.4,63.9,9.3,85l0,0
			c18.4,20.6,57.4,21.5,86.1,22.9c3.5,0.2,6.9-1.1,9.5-3.5c2.5-2.4,4-5.8,4-9.3l0,0l1.4-261.2v-0.1l0,0c0-7.1-5.8-12.9-12.9-12.9
			C1018.6,167.1,1012.8,172.8,1012.8,179.9z"/>
	</g>
	<g>
		<path d="M926.6,361l4.5-62.4l4.5-62.4c19.6,45.7,39.1,91.5,58.7,137.2L926.6,361"/>
	</g>
	<g>
		<path class="st5" d="M1069.4,454.2L1069.4,454.2c-1.8-50.4-3.5-100.8-5.3-151.2c-23,3.2-46,6.4-69.1,9.6L1069.4,454.2"/>
	</g>
</g>
</svg>
