<?xml version="1.0" encoding="utf-8"?>
<!-- Generator: Adobe Illustrator 26.0.1, SVG Export Plug-In . SVG Version: 6.00 Build 0)  -->
<svg version="1.1" id="Layer_1" xmlns="http://www.w3.org/2000/svg" xmlns:xlink="http://www.w3.org/1999/xlink" x="0px" y="0px"
	 viewBox="0 0 1809 1397" style="enable-background:new 0 0 1809 1397;" xml:space="preserve">
<style type="text/css">
	.st0{fill-opacity:0.2549;}
	.st1{fill:#F9F9F9;}
	.st2{fill:#222B32;}
	.st3{fill:#D7EDF9;}
	.st4{fill:#FFB79F;}
	.st5{fill:none;stroke:#EE2A24;stroke-width:13;stroke-miterlimit:10;}
	.st6{fill:#ED2024;}
</style>
<g id="layer1">
	<g>
		<path class="st0" d="M1574.1,1058.1l-6.1,1.4c-12.9,1.2-36.8,2.4-71.7,3.4c-17.5,0.5-37.7,1-60.7,1.5c-8,0.3-48.7,0.9-122,1.9
			c-62.9,0.7-130.8,1.3-203.7,1.6c-36.4,0.2-74.1,0.3-113,0.4c-17.9,0.1-79.1,0.1-183.5,0c-98.6-0.3-155.5-0.6-170.9-0.7
			c-35.3-0.2-68.7-0.5-100.4-0.8c-63.3-0.6-119.3-1.4-168.1-2.4c-109-2.3-154.2-4.7-135.7-7.2c8.1-1.2,28.2-2.4,60.3-3.4
			c16-0.5,35.1-1,57.1-1.5c7.6-0.3,47-0.9,118.2-2c118.3-1.5,261.8-2.3,430.5-2.4c84.3,0,162.4,0.2,234.1,0.6
			c35.9,0.2,70.2,0.4,102.9,0.7c79.1,0.8,124.6,1.3,136.6,1.6c56,0.9,100,1.8,132.1,2.9c16,0.5,29.1,1.1,39.1,1.6
			C1569,1056.8,1577.3,1057.7,1574.1,1058.1"/>
	</g>
	<g>
		<path class="st1" d="M427.1,350.8C427.1,350.8,427.1,350.8,427.1,350.8L427.1,350.8c-15.3,0-27,11.8-27,27.1l0,545.9
			c0,15.3,11.7,27,27,27.1l0,0l932.5,0l0,0c15.3,0,27-11.7,27-27l0-545.9c0-15.3-11.7-27.1-27-27.1l0,0c0,0,0,0,0,0L427.1,350.8z"/>
	</g>
	<g>
		<path class="st2" d="M427.1,317.2c-33.3,0-60.6,27.4-60.6,60.7l0,545.9c0,33.3,27.3,60.6,60.6,60.6l932.5,0
			c33.3,0,60.6-27.4,60.6-60.7l0-545.9c0-33.3-27.3-60.7-60.6-60.7L427.1,317.2L427.1,317.2z M427.1,351.9l932.5,0
			c14.7,0,25.9,11.3,25.9,26l0,545.9c0,14.7-11.2,25.9-25.9,25.9l-932.5,0c-14.7,0-25.9-11.3-25.9-25.9l0-545.9
			C401.2,363.2,412.4,351.9,427.1,351.9L427.1,351.9z"/>
	</g>
	<g>
		<path d="M806.6,1008.4l173.5,0c2.7,0,4.8,2.1,4.8,4.8c0,2.7-2.2,4.8-4.8,4.8l-173.5,0c-2.7,0-4.8-2.2-4.8-4.9
			C801.8,1010.6,804,1008.4,806.6,1008.4z"/>
	</g>
	<g>
		<path class="st3" d="M1012.6,1132.9L1012.6,1132.9L1012.6,1132.9L1012.6,1132.9"/>
	</g>
	<g>
		<path class="st4" d="M1303,1025.7L1303,1025.7L1303,1025.7L1303,1025.7"/>
	</g>
	<g>
		<path class="st2" d="M310.9,994.5c0,36.7,25.3,66.2,56.8,66.2l1051.4,0c31.4,0,56.8-29.6,56.8-66.2L310.9,994.5L310.9,994.5z"/>
	</g>
	<g>
		<path class="st5" d="M893.4,746.9h-92.7c-27.8,0-45.2-30.1-31.3-54.2l46.3-80.2l46.3-80.2c13.9-24.1,48.7-24.1,62.6,0l46.3,80.2
			l46.3,80.2c13.9,24.1-3.5,54.2-31.3,54.2H893.4z"/>
		<g>
			<path class="st6" d="M880.4,697.8c0-7.9,5.5-13.7,13-13.7c7.9,0,13,5.7,13,13.7c0,7.7-5.1,13.7-13,13.7
				C885.7,711.5,880.4,705.5,880.4,697.8z M885.9,666.3l-3.1-105.7H904l-3.1,105.7H885.9z"/>
		</g>
	</g>
</g>
</svg>
